<?xml version="1.0" encoding="UTF-8" standalone="no"?>
<!-- Created with Inkscape (http://www.inkscape.org/) -->

<svg
   xmlns:osb="http://www.openswatchbook.org/uri/2009/osb"
   xmlns:dc="http://purl.org/dc/elements/1.1/"
   xmlns:cc="http://creativecommons.org/ns#"
   xmlns:rdf="http://www.w3.org/1999/02/22-rdf-syntax-ns#"
   xmlns:svg="http://www.w3.org/2000/svg"
   xmlns="http://www.w3.org/2000/svg"
   xmlns:xlink="http://www.w3.org/1999/xlink"
   xmlns:sodipodi="http://sodipodi.sourceforge.net/DTD/sodipodi-0.dtd"
   xmlns:inkscape="http://www.inkscape.org/namespaces/inkscape"
   width="25.4mm"
   height="128.4993mm"
   viewBox="0 0 25.4 128.4993"
   version="1.1"
   id="svg55117"
   sodipodi:docname="Pan.svg"
   inkscape:version="0.92.3 (2405546, 2018-03-11)">
  <defs
     id="defs55111">
    <linearGradient
       id="linearGradient4813"
       osb:paint="solid">
      <stop
         style="stop-color:#fdf0c4;stop-opacity:1;"
         offset="0"
         id="stop4811" />
    </linearGradient>
    <linearGradient
       id="linearGradient4807"
       osb:paint="solid">
      <stop
         style="stop-color:#f7a992;stop-opacity:1;"
         offset="0"
         id="stop4805" />
    </linearGradient>
    <linearGradient
       id="linearGradient4801"
       osb:paint="solid"
       gradientTransform="matrix(3.4306404e-4,0,0,3.4306404e-4,6.9311672,215.68179)">
      <stop
         style="stop-color:#774836;stop-opacity:1;"
         offset="0"
         id="stop4799" />
    </linearGradient>
    <clipPath
       id="clip1779">
      <rect
         y="0"
         x="0"
         width="18"
         height="18"
         id="rect13697" />
    </clipPath>
    <clipPath
       id="clip1780">
      <path
         inkscape:connector-curvature="0"
         d="M 0.0429688,0.359375 H 17.050781 V 17.367188 H 0.0429688 Z m 0,0"
         id="path13694" />
    </clipPath>
    <clipPath
       id="clip1782">
      <rect
         y="0"
         x="0"
         width="23"
         height="25"
         id="rect13716" />
    </clipPath>
    <clipPath
       id="clip1783">
      <path
         inkscape:connector-curvature="0"
         d="M 0.191406,0.21875 H 22.871094 V 24.957031 H 0.191406 Z m 0,0"
         id="path13713" />
    </clipPath>
    <clipPath
       id="clip1786">
      <rect
         y="0"
         x="0"
         width="17"
         height="16"
         id="rect13738" />
    </clipPath>
    <clipPath
       id="clip1787">
      <path
         inkscape:connector-curvature="0"
         d="m 0.40625,0.453125 h 16.25 v 15.097656 h -16.25 z m 0,0"
         id="path13735" />
    </clipPath>
    <clipPath
       id="clip1789">
      <rect
         y="0"
         x="0"
         width="23"
         height="26"
         id="rect13757" />
    </clipPath>
    <clipPath
       id="clip1790">
      <path
         inkscape:connector-curvature="0"
         d="M 0.191406,0.5625 H 22.871094 V 25.304688 H 0.191406 Z m 0,0"
         id="path13754" />
    </clipPath>
    <clipPath
       id="clip1793">
      <rect
         y="0"
         x="0"
         width="17"
         height="16"
         id="rect13779" />
    </clipPath>
    <clipPath
       id="clip1794">
      <path
         inkscape:connector-curvature="0"
         d="m 0.40625,0.800781 h 16.25 v 15.097657 h -16.25 z m 0,0"
         id="path13776" />
    </clipPath>
    <clipPath
       id="clip1796">
      <rect
         y="0"
         x="0"
         width="23"
         height="26"
         id="rect13798" />
    </clipPath>
    <clipPath
       id="clip1797">
      <path
         inkscape:connector-curvature="0"
         d="M 0.191406,0.910156 H 22.871094 V 25.652344 H 0.191406 Z m 0,0"
         id="path13795" />
    </clipPath>
    <clipPath
       id="clip1800">
      <rect
         y="0"
         x="0"
         width="17"
         height="16"
         id="rect13820" />
    </clipPath>
    <clipPath
       id="clip1801">
      <path
         inkscape:connector-curvature="0"
         d="m 0.40625,0.148438 h 16.25 v 15.097656 h -16.25 z m 0,0"
         id="path13817" />
    </clipPath>
    <clipPath
       id="clip1803">
      <rect
         y="0"
         x="0"
         width="23"
         height="25"
         id="rect13839" />
    </clipPath>
    <clipPath
       id="clip1804">
      <path
         inkscape:connector-curvature="0"
         d="M 0.191406,0.257812 H 22.871094 V 24.996094 H 0.191406 Z m 0,0"
         id="path13836" />
    </clipPath>
    <clipPath
       id="clip1807">
      <rect
         y="0"
         x="0"
         width="17"
         height="16"
         id="rect13861" />
    </clipPath>
    <clipPath
       id="clip1808">
      <path
         inkscape:connector-curvature="0"
         d="m 0.40625,0.492188 h 16.25 v 15.097656 h -16.25 z m 0,0"
         id="path13858" />
    </clipPath>
    <clipPath
       id="clip1810">
      <rect
         y="0"
         x="0"
         width="23"
         height="26"
         id="rect13880" />
    </clipPath>
    <clipPath
       id="clip1811">
      <path
         inkscape:connector-curvature="0"
         d="M 0.191406,0.601562 H 22.871094 V 25.34375 H 0.191406 Z m 0,0"
         id="path13877" />
    </clipPath>
    <clipPath
       id="clip1814">
      <rect
         y="0"
         x="0"
         width="17"
         height="16"
         id="rect13902" />
    </clipPath>
    <clipPath
       id="clip1815">
      <path
         inkscape:connector-curvature="0"
         d="m 0.40625,0.839844 h 16.25 V 15.9375 h -16.25 z m 0,0"
         id="path13899" />
    </clipPath>
    <clipPath
       id="clip1817">
      <rect
         y="0"
         x="0"
         width="23"
         height="26"
         id="rect13921" />
    </clipPath>
    <clipPath
       id="clip1818">
      <path
         inkscape:connector-curvature="0"
         d="M 0.191406,0.949219 H 22.871094 V 25.691406 H 0.191406 Z m 0,0"
         id="path13918" />
    </clipPath>
    <clipPath
       id="clip1821">
      <rect
         y="0"
         x="0"
         width="17"
         height="16"
         id="rect13943" />
    </clipPath>
    <clipPath
       id="clip1822">
      <path
         inkscape:connector-curvature="0"
         d="m 0.40625,0.1875 h 16.25 v 15.097656 h -16.25 z m 0,0"
         id="path13940" />
    </clipPath>
    <clipPath
       id="clip1824">
      <rect
         y="0"
         x="0"
         width="23"
         height="26"
         id="rect13962" />
    </clipPath>
    <clipPath
       id="clip1825">
      <path
         inkscape:connector-curvature="0"
         d="M 0.191406,0.523438 H 22.871094 V 25.265625 H 0.191406 Z m 0,0"
         id="path13959" />
    </clipPath>
    <clipPath
       id="clip1828">
      <rect
         y="0"
         x="0"
         width="17"
         height="16"
         id="rect13984" />
    </clipPath>
    <clipPath
       id="clip1829">
      <path
         inkscape:connector-curvature="0"
         d="m 0.40625,0.761719 h 16.25 v 15.097656 h -16.25 z m 0,0"
         id="path13981" />
    </clipPath>
    <clipPath
       id="clip1831">
      <rect
         y="0"
         x="0"
         width="23"
         height="26"
         id="rect14003" />
    </clipPath>
    <clipPath
       id="clip1832">
      <path
         inkscape:connector-curvature="0"
         d="M 0.191406,0.871094 H 22.871094 V 25.613281 H 0.191406 Z m 0,0"
         id="path14000" />
    </clipPath>
    <clipPath
       id="clip1835">
      <rect
         y="0"
         x="0"
         width="17"
         height="16"
         id="rect14025" />
    </clipPath>
    <clipPath
       id="clip1836">
      <path
         inkscape:connector-curvature="0"
         d="m 0.40625,0.105469 h 16.25 v 15.101562 h -16.25 z m 0,0"
         id="path14022" />
    </clipPath>
    <clipPath
       id="clip1838">
      <rect
         y="0"
         x="0"
         width="23"
         height="25"
         id="rect14044" />
    </clipPath>
    <clipPath
       id="clip1839">
      <path
         inkscape:connector-curvature="0"
         d="M 0.191406,0.179688 H 22.871094 V 24.917969 H 0.191406 Z m 0,0"
         id="path14041" />
    </clipPath>
    <clipPath
       id="clip1842">
      <rect
         y="0"
         x="0"
         width="17"
         height="16"
         id="rect14066" />
    </clipPath>
    <clipPath
       id="clip1843">
      <path
         inkscape:connector-curvature="0"
         d="m 0.40625,0.414062 h 16.25 v 15.097657 h -16.25 z m 0,0"
         id="path14063" />
    </clipPath>
    <clipPath
       id="clip1845">
      <rect
         y="0"
         x="0"
         width="23"
         height="26"
         id="rect14085" />
    </clipPath>
    <clipPath
       id="clip1846">
      <path
         inkscape:connector-curvature="0"
         d="M 0.191406,0.296875 H 22.871094 V 25.035156 H 0.191406 Z m 0,0"
         id="path14082" />
    </clipPath>
    <clipPath
       id="clip1849">
      <rect
         y="0"
         x="0"
         width="17"
         height="16"
         id="rect14107" />
    </clipPath>
    <clipPath
       id="clip1850">
      <path
         inkscape:connector-curvature="0"
         d="m 0.40625,0.53125 h 16.25 v 15.101562 h -16.25 z m 0,0"
         id="path14104" />
    </clipPath>
    <clipPath
       id="clip1852">
      <rect
         y="0"
         x="0"
         width="23"
         height="25"
         id="rect14126" />
    </clipPath>
    <clipPath
       id="clip1853">
      <path
         inkscape:connector-curvature="0"
         d="M 0.222656,0.21875 H 22.902344 V 24.957031 H 0.222656 Z m 0,0"
         id="path14123" />
    </clipPath>
    <clipPath
       id="clip1856">
      <rect
         y="0"
         x="0"
         width="17"
         height="16"
         id="rect14148" />
    </clipPath>
    <clipPath
       id="clip1857">
      <path
         inkscape:connector-curvature="0"
         d="m 0.4375,0.453125 h 16.25 v 15.097656 h -16.25 z m 0,0"
         id="path14145" />
    </clipPath>
    <clipPath
       id="clip1859">
      <rect
         y="0"
         x="0"
         width="23"
         height="26"
         id="rect14167" />
    </clipPath>
    <clipPath
       id="clip1860">
      <path
         inkscape:connector-curvature="0"
         d="M 0.222656,0.5625 H 22.902344 V 25.304688 H 0.222656 Z m 0,0"
         id="path14164" />
    </clipPath>
    <clipPath
       id="clip1863">
      <rect
         y="0"
         x="0"
         width="17"
         height="16"
         id="rect14189" />
    </clipPath>
    <clipPath
       id="clip1864">
      <path
         inkscape:connector-curvature="0"
         d="m 0.4375,0.800781 h 16.25 v 15.097657 h -16.25 z m 0,0"
         id="path14186" />
    </clipPath>
    <clipPath
       id="clip1866">
      <rect
         y="0"
         x="0"
         width="23"
         height="26"
         id="rect14208" />
    </clipPath>
    <clipPath
       id="clip1867">
      <path
         inkscape:connector-curvature="0"
         d="M 0.222656,0.910156 H 22.902344 V 25.652344 H 0.222656 Z m 0,0"
         id="path14205" />
    </clipPath>
    <clipPath
       id="clip1870">
      <rect
         y="0"
         x="0"
         width="17"
         height="16"
         id="rect14230" />
    </clipPath>
    <clipPath
       id="clip1871">
      <path
         inkscape:connector-curvature="0"
         d="m 0.4375,0.148438 h 16.25 v 15.097656 h -16.25 z m 0,0"
         id="path14227" />
    </clipPath>
    <clipPath
       id="clip1873">
      <rect
         y="0"
         x="0"
         width="23"
         height="25"
         id="rect14249" />
    </clipPath>
    <clipPath
       id="clip1874">
      <path
         inkscape:connector-curvature="0"
         d="M 0.222656,0.257812 H 22.902344 V 24.996094 H 0.222656 Z m 0,0"
         id="path14246" />
    </clipPath>
    <clipPath
       id="clip1877">
      <rect
         y="0"
         x="0"
         width="17"
         height="16"
         id="rect14271" />
    </clipPath>
    <clipPath
       id="clip1878">
      <path
         inkscape:connector-curvature="0"
         d="m 0.4375,0.492188 h 16.25 v 15.097656 h -16.25 z m 0,0"
         id="path14268" />
    </clipPath>
    <clipPath
       id="clip1880">
      <rect
         y="0"
         x="0"
         width="23"
         height="26"
         id="rect14290" />
    </clipPath>
    <clipPath
       id="clip1881">
      <path
         inkscape:connector-curvature="0"
         d="M 0.222656,0.601562 H 22.902344 V 25.34375 H 0.222656 Z m 0,0"
         id="path14287" />
    </clipPath>
    <clipPath
       id="clip1884">
      <rect
         y="0"
         x="0"
         width="17"
         height="16"
         id="rect14312" />
    </clipPath>
    <clipPath
       id="clip1885">
      <path
         inkscape:connector-curvature="0"
         d="m 0.4375,0.839844 h 16.25 V 15.9375 h -16.25 z m 0,0"
         id="path14309" />
    </clipPath>
    <clipPath
       id="clip1887">
      <rect
         y="0"
         x="0"
         width="23"
         height="26"
         id="rect14331" />
    </clipPath>
    <clipPath
       id="clip1888">
      <path
         inkscape:connector-curvature="0"
         d="M 0.222656,0.949219 H 22.902344 V 25.691406 H 0.222656 Z m 0,0"
         id="path14328" />
    </clipPath>
    <clipPath
       id="clip1891">
      <rect
         y="0"
         x="0"
         width="17"
         height="16"
         id="rect14353" />
    </clipPath>
    <clipPath
       id="clip1892">
      <path
         inkscape:connector-curvature="0"
         d="m 0.4375,0.1875 h 16.25 v 15.097656 h -16.25 z m 0,0"
         id="path14350" />
    </clipPath>
    <clipPath
       id="clip1894">
      <rect
         y="0"
         x="0"
         width="23"
         height="26"
         id="rect14372" />
    </clipPath>
    <clipPath
       id="clip1895">
      <path
         inkscape:connector-curvature="0"
         d="M 0.222656,0.523438 H 22.902344 V 25.265625 H 0.222656 Z m 0,0"
         id="path14369" />
    </clipPath>
    <clipPath
       id="clip1898">
      <rect
         y="0"
         x="0"
         width="17"
         height="16"
         id="rect14394" />
    </clipPath>
    <clipPath
       id="clip1899">
      <path
         inkscape:connector-curvature="0"
         d="m 0.4375,0.761719 h 16.25 v 15.097656 h -16.25 z m 0,0"
         id="path14391" />
    </clipPath>
    <clipPath
       id="clip1901">
      <rect
         y="0"
         x="0"
         width="23"
         height="26"
         id="rect14413" />
    </clipPath>
    <clipPath
       id="clip1902">
      <path
         inkscape:connector-curvature="0"
         d="M 0.222656,0.871094 H 22.902344 V 25.613281 H 0.222656 Z m 0,0"
         id="path14410" />
    </clipPath>
    <clipPath
       id="clip1905">
      <rect
         y="0"
         x="0"
         width="17"
         height="16"
         id="rect14435" />
    </clipPath>
    <clipPath
       id="clip1906">
      <path
         inkscape:connector-curvature="0"
         d="m 0.4375,0.105469 h 16.25 v 15.101562 h -16.25 z m 0,0"
         id="path14432" />
    </clipPath>
    <clipPath
       id="clip1908">
      <rect
         y="0"
         x="0"
         width="23"
         height="25"
         id="rect14454" />
    </clipPath>
    <clipPath
       id="clip1909">
      <path
         inkscape:connector-curvature="0"
         d="M 0.222656,0.179688 H 22.902344 V 24.917969 H 0.222656 Z m 0,0"
         id="path14451" />
    </clipPath>
    <clipPath
       id="clip1912">
      <rect
         y="0"
         x="0"
         width="17"
         height="16"
         id="rect14476" />
    </clipPath>
    <clipPath
       id="clip1913">
      <path
         inkscape:connector-curvature="0"
         d="m 0.4375,0.414062 h 16.25 v 15.097657 h -16.25 z m 0,0"
         id="path14473" />
    </clipPath>
    <clipPath
       id="clip1915">
      <rect
         y="0"
         x="0"
         width="23"
         height="26"
         id="rect14495" />
    </clipPath>
    <clipPath
       id="clip1916">
      <path
         inkscape:connector-curvature="0"
         d="M 0.222656,0.296875 H 22.902344 V 25.035156 H 0.222656 Z m 0,0"
         id="path14492" />
    </clipPath>
    <clipPath
       id="clip1919">
      <rect
         y="0"
         x="0"
         width="17"
         height="16"
         id="rect14517" />
    </clipPath>
    <clipPath
       id="clip1920">
      <path
         inkscape:connector-curvature="0"
         d="m 0.4375,0.53125 h 16.25 v 15.101562 h -16.25 z m 0,0"
         id="path14514" />
    </clipPath>
    <clipPath
       id="clip1926">
      <rect
         y="0"
         x="0"
         width="18"
         height="18"
         id="rect14548" />
    </clipPath>
    <clipPath
       id="clip1927">
      <path
         inkscape:connector-curvature="0"
         d="M 0.0429688,0.0898438 H 17.050781 V 17.097656 H 0.0429688 Z m 0,0"
         id="path14545" />
    </clipPath>
    <clipPath
       id="clip1929">
      <rect
         y="0"
         x="0"
         width="18"
         height="18"
         id="rect14567" />
    </clipPath>
    <clipPath
       id="clip1930">
      <path
         inkscape:connector-curvature="0"
         d="M 0.0429688,0.4375 H 17.050781 V 17.445312 H 0.0429688 Z m 0,0"
         id="path14564" />
    </clipPath>
    <clipPath
       id="clip1932">
      <rect
         y="0"
         x="0"
         width="18"
         height="18"
         id="rect14586" />
    </clipPath>
    <clipPath
       id="clip1933">
      <path
         inkscape:connector-curvature="0"
         d="M 0.0429688,0.132812 H 17.050781 V 17.140625 H 0.0429688 Z m 0,0"
         id="path14583" />
    </clipPath>
    <linearGradient
       inkscape:collect="always"
       xlink:href="#linearGradient4807"
       id="linearGradient4809"
       x1="130.09512"
       y1="122.75216"
       x2="140.4816"
       y2="122.75216"
       gradientUnits="userSpaceOnUse"
       gradientTransform="matrix(2.123451,0,0,0.14379462,-191.93793,91.620247)" />
    <linearGradient
       inkscape:collect="always"
       xlink:href="#linearGradient4813"
       id="linearGradient4815"
       x1="82.583366"
       y1="121.61974"
       x2="143.35329"
       y2="121.61974"
       gradientUnits="userSpaceOnUse"
       gradientTransform="matrix(0.42106631,0,0,1,47.810291,0)" />
    <linearGradient
       inkscape:collect="always"
       xlink:href="#linearGradient4801"
       id="linearGradient4917"
       gradientUnits="userSpaceOnUse"
       gradientTransform="translate(-34.748771,0.48022063)"
       x1="40.955105"
       y1="4.8188963"
       x2="52.224361"
       y2="4.8188963" />
    <linearGradient
       inkscape:collect="always"
       xlink:href="#linearGradient4807"
       id="linearGradient4809-2"
       x1="130.09512"
       y1="122.75216"
       x2="140.4816"
       y2="122.75216"
       gradientUnits="userSpaceOnUse"
       gradientTransform="matrix(2.123451,0,0,0.14379462,-274.06676,95.18352)" />
  </defs>
  <sodipodi:namedview
     id="base"
     pagecolor="#ffffff"
     bordercolor="#666666"
     borderopacity="1.0"
     inkscape:pageopacity="0.0"
     inkscape:pageshadow="2"
     inkscape:zoom="0.87841658"
     inkscape:cx="-22.231116"
     inkscape:cy="115.35913"
     inkscape:document-units="mm"
     inkscape:current-layer="layer4"
     showgrid="false"
     fit-margin-top="0"
     fit-margin-left="0"
     fit-margin-right="0"
     fit-margin-bottom="0"
     inkscape:snap-bbox="true"
     inkscape:bbox-nodes="true"
     inkscape:window-width="1853"
     inkscape:window-height="1016"
     inkscape:window-x="67"
     inkscape:window-y="27"
     inkscape:window-maximized="1"
     showguides="false"
     inkscape:measure-start="137.381,403.051"
     inkscape:measure-end="137.381,365.201" />
  <metadata
     id="metadata55114">
    <rdf:RDF>
      <cc:Work
         rdf:about="">
        <dc:format>image/svg+xml</dc:format>
        <dc:type
           rdf:resource="http://purl.org/dc/dcmitype/StillImage" />
        <dc:title></dc:title>
      </cc:Work>
    </rdf:RDF>
  </metadata>
  <g
     inkscape:label="Layer 1"
     inkscape:groupmode="layer"
     id="layer1"
     transform="translate(-82.489665,-57.369398)"
     style="display:inline">
    <path
       inkscape:connector-curvature="0"
       id="path15641"
       d="M 82.583363,57.463104 H 108.17153 V 185.77637 H 82.583363 Z m 0,0"
       style="fill:url(#linearGradient4815);fill-opacity:1;fill-rule:nonzero;stroke:none;stroke-width:0.2805703" />
    <path
       inkscape:connector-curvature="0"
       id="path69622"
       d="m 106.36785,101.83723 c -0.0217,-0.11901 -1.02651,-0.11427 -2.27906,-0.11427 H 86.591651 c -1.25252,0 -2.278976,0.001 -2.278976,0.11427 v 14.8281 c 0,0.0927 1.026456,0.15434 2.278976,0.15434 h 17.497139 c 1.25255,0 2.27906,-0.0583 2.27906,-0.15434 z"
       style="fill:url(#linearGradient4809);fill-opacity:1;fill-rule:nonzero;stroke:none;stroke-width:0.55947983"
       sodipodi:nodetypes="csssssssc" />
    <g
       aria-label="OUT"
       style="font-style:normal;font-variant:normal;font-weight:900;font-stretch:normal;font-size:2.11666656px;line-height:1.25;font-family:Lato;-inkscape-font-specification:'Lato, Heavy';font-variant-ligatures:normal;font-variant-caps:normal;font-variant-numeric:normal;font-feature-settings:normal;text-align:start;letter-spacing:0px;word-spacing:0px;writing-mode:lr-tb;text-anchor:start;display:inline;fill:#ffffff;fill-opacity:1;stroke:none;stroke-width:0.26458332"
       id="text470-8-9-64">
      <path
         d="m 134.65042,72.115133 q 0,0.167216 -0.0582,0.31115 -0.0572,0.143933 -0.16192,0.250825 -0.10478,0.105833 -0.25295,0.166158 -0.1471,0.06033 -0.32702,0.06033 -0.17992,0 -0.32808,-0.06033 -0.14817,-0.06033 -0.254,-0.166158 -0.10478,-0.106892 -0.16299,-0.250825 -0.0572,-0.143934 -0.0572,-0.31115 0,-0.167217 0.0572,-0.31115 0.0582,-0.143934 0.16299,-0.249767 0.10583,-0.105833 0.254,-0.166158 0.14816,-0.06033 0.32808,-0.06033 0.17992,0 0.32702,0.06138 0.14817,0.06032 0.25295,0.166158 0.10477,0.105834 0.16192,0.249767 0.0582,0.143933 0.0582,0.310092 z m -0.36618,0 q 0,-0.1143 -0.0296,-0.205317 -0.0296,-0.09208 -0.0857,-0.155575 -0.055,-0.0635 -0.13547,-0.09737 -0.0804,-0.03387 -0.18309,-0.03387 -0.10372,0 -0.18521,0.03387 -0.0804,0.03387 -0.13652,0.09737 -0.055,0.0635 -0.0847,0.155575 -0.0296,0.09102 -0.0296,0.205317 0,0.115358 0.0296,0.207433 0.0296,0.09102 0.0847,0.154517 0.0561,0.0635 0.13652,0.09737 0.0815,0.03281 0.18521,0.03281 0.10266,0 0.18309,-0.03281 0.0804,-0.03387 0.13547,-0.09737 0.0561,-0.0635 0.0857,-0.154517 0.0296,-0.09207 0.0296,-0.207433 z"
         style="font-style:normal;font-variant:normal;font-weight:900;font-stretch:normal;font-size:2.11666656px;font-family:Lato;-inkscape-font-specification:'Lato, Heavy';font-variant-ligatures:normal;font-variant-caps:normal;font-variant-numeric:normal;font-feature-settings:normal;text-align:start;letter-spacing:0.079375px;writing-mode:lr-tb;text-anchor:start;fill:#ffffff;stroke-width:0.26458332"
         id="path650"
         inkscape:connector-curvature="0" />
      <path
         d="m 135.58377,72.604083 q 0.072,0 0.12806,-0.02328 0.0572,-0.02434 0.0963,-0.06879 0.0392,-0.04445 0.0593,-0.10795 0.0212,-0.06456 0.0212,-0.14605 v -0.913342 h 0.35772 v 0.913342 q 0,0.141816 -0.0466,0.26035 -0.0455,0.118533 -0.13123,0.204258 -0.0857,0.08572 -0.20849,0.13335 -0.12277,0.04763 -0.27623,0.04763 -0.15452,0 -0.27728,-0.04763 -0.12277,-0.04762 -0.20849,-0.13335 -0.0857,-0.08572 -0.13124,-0.204258 -0.0455,-0.118534 -0.0455,-0.26035 v -0.913342 h 0.35772 v 0.912283 q 0,0.08149 0.0201,0.14605 0.0212,0.0635 0.0603,0.109009 0.0392,0.04445 0.0952,0.06879 0.0572,0.02328 0.12912,0.02328 z"
         style="font-style:normal;font-variant:normal;font-weight:900;font-stretch:normal;font-size:2.11666656px;font-family:Lato;-inkscape-font-specification:'Lato, Heavy';font-variant-ligatures:normal;font-variant-caps:normal;font-variant-numeric:normal;font-feature-settings:normal;text-align:start;letter-spacing:0.079375px;writing-mode:lr-tb;text-anchor:start;fill:#ffffff;stroke-width:0.26458332"
         id="path652"
         inkscape:connector-curvature="0" />
      <path
         d="m 137.71112,71.344666 v 0.283633 h -0.43392 v 1.258359 h -0.35771 v -1.258359 h -0.43392 v -0.283633 z"
         style="font-style:normal;font-variant:normal;font-weight:900;font-stretch:normal;font-size:2.11666656px;font-family:Lato;-inkscape-font-specification:'Lato, Heavy';font-variant-ligatures:normal;font-variant-caps:normal;font-variant-numeric:normal;font-feature-settings:normal;text-align:start;letter-spacing:0.079375px;writing-mode:lr-tb;text-anchor:start;fill:#ffffff;stroke-width:0.26458332"
         id="path654"
         inkscape:connector-curvature="0" />
    </g>
  </g>
  <g
     inkscape:groupmode="layer"
     id="layer2"
     inkscape:label="Text"
     style="display:inline">
    <text
       xml:space="preserve"
       style="font-style:normal;font-variant:normal;font-weight:normal;font-stretch:normal;font-size:4.23333333px;line-height:1.25;font-family:Lakmus;-inkscape-font-specification:'Lakmus, Normal';font-variant-ligatures:normal;font-variant-caps:normal;font-variant-numeric:normal;font-feature-settings:normal;text-align:start;letter-spacing:0px;word-spacing:0px;writing-mode:lr;text-anchor:start;display:inline;fill:url(#linearGradient4801);fill-opacity:1;stroke:none;stroke-width:0.26458332;"
       x="11.570361"
       y="14.102127"
       id="text470-8-3"><tspan
         sodipodi:role="line"
         id="tspan468-6-7"
         x="11.570361"
         y="14.102127"
         style="font-style:normal;font-variant:normal;font-weight:normal;font-stretch:normal;font-size:4.23333333px;font-family:Lakmus;-inkscape-font-specification:'Lakmus, Normal';font-variant-ligatures:normal;font-variant-caps:normal;font-variant-numeric:normal;font-feature-settings:normal;text-align:start;writing-mode:lr;text-anchor:start;fill:url(#linearGradient4801);stroke-width:0.26458332;">in</tspan></text>
    <text
       xml:space="preserve"
       style="font-style:normal;font-variant:normal;font-weight:bold;font-stretch:normal;font-size:16.19545746px;line-height:1.25;font-family:Lato;-inkscape-font-specification:'Lato, Bold';font-variant-ligatures:normal;font-variant-caps:normal;font-variant-numeric:normal;font-feature-settings:normal;text-align:start;letter-spacing:0px;word-spacing:0px;writing-mode:lr-tb;text-anchor:start;display:inline;fill:url(#linearGradient4917);fill-opacity:1;stroke:none;stroke-width:0.50610805"
       x="6.2063346"
       y="7.2972322"
       id="text470-8-9-6-3-9"
       transform="scale(1.1097386,0.90111311)"><tspan
         sodipodi:role="line"
         id="tspan468-6-9-0-6-1"
         x="6.2063346"
         y="7.2972322"
         style="font-style:normal;font-variant:normal;font-weight:bold;font-stretch:normal;font-size:4.04886436px;font-family:Lakmus;-inkscape-font-specification:'Lakmus Bold';font-variant-ligatures:normal;font-variant-caps:normal;font-variant-numeric:normal;font-feature-settings:normal;text-align:start;writing-mode:lr-tb;text-anchor:start;fill:url(#linearGradient4917);fill-opacity:1;stroke-width:0.50610805">VITaMIn P</tspan></text>
    <text
       xml:space="preserve"
       style="font-style:normal;font-weight:normal;font-size:10.58333302px;line-height:1.25;font-family:sans-serif;letter-spacing:0px;word-spacing:0px;fill:#000000;fill-opacity:1;stroke:none;stroke-width:0.26458332"
       x="35.435268"
       y="7.9248934"
       id="text289"><tspan
         sodipodi:role="line"
         id="tspan287"
         x="35.435268"
         y="17.288662"
         style="stroke-width:0.26458332" /></text>
    <text
       xml:space="preserve"
       style="font-style:normal;font-variant:normal;font-weight:normal;font-stretch:normal;font-size:4.23333311px;line-height:1.25;font-family:Lakmus;-inkscape-font-specification:'Lakmus, Normal';font-variant-ligatures:normal;font-variant-caps:normal;font-variant-numeric:normal;font-feature-settings:normal;text-align:start;letter-spacing:0px;word-spacing:0px;writing-mode:lr-tb;text-anchor:start;display:inline;fill:#ffffff;fill-opacity:1;stroke:none;stroke-width:0.26458332"
       x="10.848325"
       y="48.919174"
       id="text470-8-9-64-4-7"><tspan
         sodipodi:role="line"
         id="tspan468-6-9-9-0-5"
         x="10.848325"
         y="48.919174"
         style="font-style:normal;font-variant:normal;font-weight:normal;font-stretch:normal;font-size:4.23333311px;font-family:Lakmus;-inkscape-font-specification:'Lakmus, Normal';font-variant-ligatures:normal;font-variant-caps:normal;font-variant-numeric:normal;font-feature-settings:normal;text-align:start;writing-mode:lr-tb;text-anchor:start;fill:#ffffff;stroke-width:0.26458332">OUt</tspan></text>
    <text
       xml:space="preserve"
       style="font-style:normal;font-variant:normal;font-weight:normal;font-stretch:normal;font-size:4.23333311px;line-height:1.25;font-family:Lakmus;-inkscape-font-specification:'Lakmus, Normal';font-variant-ligatures:normal;font-variant-caps:normal;font-variant-numeric:normal;font-feature-settings:normal;text-align:start;letter-spacing:0px;word-spacing:0px;writing-mode:lr-tb;text-anchor:start;display:inline;fill:url(#linearGradient4801);fill-opacity:1;stroke:none;stroke-width:0.26458332"
       x="6.2646942"
       y="31.030073"
       id="text470-8-3-7"><tspan
         sodipodi:role="line"
         id="tspan468-6-7-4"
         x="6.2646942"
         y="31.030073"
         style="font-style:normal;font-variant:normal;font-weight:normal;font-stretch:normal;font-size:4.23333311px;font-family:Lakmus;-inkscape-font-specification:'Lakmus, Normal';font-variant-ligatures:normal;font-variant-caps:normal;font-variant-numeric:normal;font-feature-settings:normal;text-align:start;writing-mode:lr-tb;text-anchor:start;fill:url(#linearGradient4801);stroke-width:0.26458332">CV</tspan></text>
    <text
       xml:space="preserve"
       style="font-style:normal;font-variant:normal;font-weight:normal;font-stretch:normal;font-size:4.23333311px;line-height:1.25;font-family:Lakmus;-inkscape-font-specification:'Lakmus, Normal';font-variant-ligatures:normal;font-variant-caps:normal;font-variant-numeric:normal;font-feature-settings:normal;text-align:start;letter-spacing:0px;word-spacing:0px;writing-mode:lr-tb;text-anchor:start;display:inline;fill:url(#linearGradient4801);fill-opacity:1;stroke:none;stroke-width:0.26458332"
       x="16.704203"
       y="30.923582"
       id="text470-8-3-7-1"><tspan
         sodipodi:role="line"
         id="tspan468-6-7-4-1"
         x="16.704203"
         y="30.923582"
         style="font-style:normal;font-variant:normal;font-weight:normal;font-stretch:normal;font-size:4.23333311px;font-family:Lakmus;-inkscape-font-specification:'Lakmus, Normal';font-variant-ligatures:normal;font-variant-caps:normal;font-variant-numeric:normal;font-feature-settings:normal;text-align:start;writing-mode:lr-tb;text-anchor:start;fill:url(#linearGradient4801);stroke-width:0.26458332">Pan</tspan></text>
  </g>
  <g
     inkscape:groupmode="layer"
     id="layer4"
     inkscape:label="Text 1">
    <g
       id="g4942"
       transform="matrix(0.56172943,0,0,0.56172943,-0.92601544,23.413328)"
       style="fill:url(#linearGradient4801)">
      <path
         inkscape:connector-curvature="0"
         id="path418"
         style="fill:url(#linearGradient4801);fill-opacity:1;fill-rule:evenodd;stroke:none;stroke-width:0.03527778"
         d="m 5.1178449,71.163147 c -1.603023,-1.136298 -3.287538,-2.134306 -5.23804595,-2.667 -4.28907105,-1.170164 -10.00022595,-1.061156 -11.43973595,2.667 h 0.188101 c 1.4680499,-3.47345 7.1100249,-3.202164 11.12251795,-2.003425 1.50988995,0.451555 2.85362095,1.166636 4.12538295,2.003425 z m 2.581979,1.928283 c -0.451909,-0.342195 -0.902404,-0.686858 -1.355019,-1.0287 h -1.178631 c 0.4572,0.335492 0.909463,0.680508 1.361016,1.0287 z m 22.8201351,2.583391 c -0.820208,-2.120547 -4.407604,-1.192036 -5.898795,-0.63888 -2.109965,0.782108 -4.040365,1.896886 -6.337652,2.076097 -3.446288,0.268111 -6.901747,-1.21673 -9.3658981,-3.118555 h -1.220259 c 4.9283071,3.7719 9.5620421,4.69653 15.3825231,2.065513 1.918756,-0.866069 4.307414,-1.715205 6.291086,-0.577497 1.25236,0.716492 0.564443,1.237545 -0.527757,1.176514 -0.953206,-0.05362 -1.880658,-0.317147 -2.81799,-0.470605 -2.538941,-0.414514 -3.974745,0.605013 -4.244268,1.0922 0.677333,-0.75565 2.926643,-0.530225 3.694993,-0.438503 1.05128,0.125236 2.047875,0.423686 3.11009,0.474133 0.729898,0.03493 2.351617,-0.560917 1.933927,-1.640417 v 0" />
      <path
         inkscape:connector-curvature="0"
         id="path420"
         style="fill:url(#linearGradient4801);fill-opacity:1;fill-rule:evenodd;stroke:none;stroke-width:0.03527778"
         d="m 22.085749,73.993483 c -2.887134,1.951919 -6.825544,3.065286 -9.721496,0.212725 3.070929,3.595863 7.0866,2.008011 10.191044,-0.212725 z m 2.83704,-1.930753 c -0.493184,0.348544 -0.986015,0.69603 -1.484842,1.0287 h 0.351718 c 0.468136,-0.34537 0.934861,-0.691445 1.407936,-1.0287 z m 8.204903,-3.678414 c -2.671585,0.101247 -4.837287,1.350433 -6.919383,2.778831 h 0.31468 c 0.53481,-0.342195 1.08232,-0.663223 1.649941,-0.950737 2.324804,-1.177219 5.014029,-1.710972 7.379404,-0.456847 0.694621,0.367595 0.516467,0.550686 0.330555,0.604309 -0.309034,0.08714 -1.127125,-0.154164 -1.539172,-0.262467 -2.64936,-0.698147 -4.346927,-0.344311 -5.381977,0.691092 1.622425,-0.82162 3.995209,-0.33655 5.793317,0.249413 0.218017,0.07091 0.422627,0.11042 0.612423,0.125237 h 0.305859 c 0.793395,-0.06421 1.216025,-0.633589 1.032578,-1.216025 -0.253645,-0.80257 -1.63971,-1.636536 -3.578225,-1.562806 v 0" />
      <path
         inkscape:connector-curvature="0"
         id="path422"
         style="fill:url(#linearGradient4801);fill-opacity:1;fill-rule:evenodd;stroke:none;stroke-width:0.03527778"
         d="m -21.188688,71.351883 h 71.632826 v 0.522111 h -71.632826 v -0.522111" />
      <path
         inkscape:connector-curvature="0"
         id="path424"
         style="fill:url(#linearGradient4801);fill-opacity:1;fill-rule:evenodd;stroke:none;stroke-width:0.03527778"
         d="m 50.444138,70.09423 c -0.839254,0 -1.519408,0.67945 -1.519408,1.519061 0,0.839258 0.680154,1.518708 1.519408,1.518708 0.83891,0 1.51907,-0.67945 1.51907,-1.518708 0,-0.839611 -0.68016,-1.519061 -1.51907,-1.519061" />
      <path
         inkscape:connector-curvature="0"
         id="path426"
         style="fill:url(#linearGradient4801);fill-opacity:1;fill-rule:evenodd;stroke:none;stroke-width:0.03527778"
         d="m 42.989597,73.28193 h -71.283335 v 0.522111 H 42.989597 V 73.28193" />
      <path
         inkscape:connector-curvature="0"
         id="path428"
         style="fill:url(#linearGradient4801);fill-opacity:1;fill-rule:evenodd;stroke:none;stroke-width:0.03527778"
         d="m -28.293738,72.022866 c 0.839505,0 1.519308,0.680861 1.519308,1.519414 0,0.838905 -0.679803,1.519061 -1.519308,1.519061 -0.838941,0 -1.519132,-0.680156 -1.519132,-1.519061 0,-0.838553 0.680191,-1.519414 1.519132,-1.519414" />
    </g>
    <path
       inkscape:connector-curvature="0"
       id="path69622-1"
       d="m 24.239026,105.40051 c -0.0217,-0.11901 -1.02651,-0.11427 -2.27906,-0.11427 H 4.4628266 c -1.25252,0 -2.278976,10e-4 -2.278976,0.11427 v 14.8281 c 0,0.0927 1.026456,0.15434 2.278976,0.15434 H 21.959966 c 1.25255,0 2.27906,-0.0583 2.27906,-0.15434 z"
       style="display:inline;fill:url(#linearGradient4809-2);fill-opacity:1;fill-rule:nonzero;stroke:none;stroke-width:0.55947983"
       sodipodi:nodetypes="csssssssc" />
    <text
       xml:space="preserve"
       style="font-style:normal;font-variant:normal;font-weight:normal;font-stretch:normal;font-size:4.23333311px;line-height:1.25;font-family:Lakmus;-inkscape-font-specification:'Lakmus, Normal';font-variant-ligatures:normal;font-variant-caps:normal;font-variant-numeric:normal;font-feature-settings:normal;text-align:start;letter-spacing:0px;word-spacing:0px;writing-mode:lr-tb;text-anchor:start;display:inline;fill:url(#linearGradient4801);fill-opacity:1;stroke:none;stroke-width:0.26458332"
       x="11.931201"
       y="75.034798"
       id="text470-8-3-8"><tspan
         sodipodi:role="line"
         id="tspan468-6-7-3"
         x="11.931201"
         y="75.034798"
         style="font-style:normal;font-variant:normal;font-weight:normal;font-stretch:normal;font-size:4.23333311px;font-family:Lakmus;-inkscape-font-specification:'Lakmus, Normal';font-variant-ligatures:normal;font-variant-caps:normal;font-variant-numeric:normal;font-feature-settings:normal;text-align:start;writing-mode:lr-tb;text-anchor:start;fill:url(#linearGradient4801);stroke-width:0.26458332">in</tspan></text>
    <text
       xml:space="preserve"
       style="font-style:normal;font-variant:normal;font-weight:normal;font-stretch:normal;font-size:4.23333311px;line-height:1.25;font-family:Lakmus;-inkscape-font-specification:'Lakmus, Normal';font-variant-ligatures:normal;font-variant-caps:normal;font-variant-numeric:normal;font-feature-settings:normal;text-align:start;letter-spacing:0px;word-spacing:0px;writing-mode:lr-tb;text-anchor:start;display:inline;fill:#ffffff;fill-opacity:1;stroke:none;stroke-width:0.26458332"
       x="11.209167"
       y="109.85184"
       id="text470-8-9-64-4-7-4"><tspan
         sodipodi:role="line"
         id="tspan468-6-9-9-0-5-2"
         x="11.209167"
         y="109.85184"
         style="font-style:normal;font-variant:normal;font-weight:normal;font-stretch:normal;font-size:4.23333311px;font-family:Lakmus;-inkscape-font-specification:'Lakmus, Normal';font-variant-ligatures:normal;font-variant-caps:normal;font-variant-numeric:normal;font-feature-settings:normal;text-align:start;writing-mode:lr-tb;text-anchor:start;fill:#ffffff;stroke-width:0.26458332">OUt</tspan></text>
    <text
       xml:space="preserve"
       style="font-style:normal;font-variant:normal;font-weight:normal;font-stretch:normal;font-size:4.23333311px;line-height:1.25;font-family:Lakmus;-inkscape-font-specification:'Lakmus, Normal';font-variant-ligatures:normal;font-variant-caps:normal;font-variant-numeric:normal;font-feature-settings:normal;text-align:start;letter-spacing:0px;word-spacing:0px;writing-mode:lr-tb;text-anchor:start;display:inline;fill:url(#linearGradient4801);fill-opacity:1;stroke:none;stroke-width:0.26458332"
       x="6.6255331"
       y="91.962746"
       id="text470-8-3-7-2"><tspan
         sodipodi:role="line"
         id="tspan468-6-7-4-4"
         x="6.6255331"
         y="91.962746"
         style="font-style:normal;font-variant:normal;font-weight:normal;font-stretch:normal;font-size:4.23333311px;font-family:Lakmus;-inkscape-font-specification:'Lakmus, Normal';font-variant-ligatures:normal;font-variant-caps:normal;font-variant-numeric:normal;font-feature-settings:normal;text-align:start;writing-mode:lr-tb;text-anchor:start;fill:url(#linearGradient4801);stroke-width:0.26458332">CV</tspan></text>
    <text
       xml:space="preserve"
       style="font-style:normal;font-variant:normal;font-weight:normal;font-stretch:normal;font-size:4.23333311px;line-height:1.25;font-family:Lakmus;-inkscape-font-specification:'Lakmus, Normal';font-variant-ligatures:normal;font-variant-caps:normal;font-variant-numeric:normal;font-feature-settings:normal;text-align:start;letter-spacing:0px;word-spacing:0px;writing-mode:lr-tb;text-anchor:start;display:inline;fill:url(#linearGradient4801);fill-opacity:1;stroke:none;stroke-width:0.26458332"
       x="17.065042"
       y="91.856255"
       id="text470-8-3-7-1-5"><tspan
         sodipodi:role="line"
         id="tspan468-6-7-4-1-1"
         x="17.065042"
         y="91.856255"
         style="font-style:normal;font-variant:normal;font-weight:normal;font-stretch:normal;font-size:4.23333311px;font-family:Lakmus;-inkscape-font-specification:'Lakmus, Normal';font-variant-ligatures:normal;font-variant-caps:normal;font-variant-numeric:normal;font-feature-settings:normal;text-align:start;writing-mode:lr-tb;text-anchor:start;fill:url(#linearGradient4801);stroke-width:0.26458332">Pan</tspan></text>
    <rect
       y="76.096596"
       x="8.9542761"
       height="8.2117281"
       width="8.2131243"
       id="rect56657-7"
       style="display:inline;opacity:1;vector-effect:none;fill:#00ff00;fill-opacity:0.51794876;fill-rule:evenodd;stroke:none;stroke-width:0.34577003;stroke-linecap:butt;stroke-linejoin:miter;stroke-miterlimit:10;stroke-dasharray:none;stroke-dashoffset:0;stroke-opacity:1;paint-order:normal" />
    <path
       inkscape:connector-curvature="0"
       id="rect56094-5"
       d="m 15.212887,92.532914 c 2.500052,0 5.000104,0 7.500157,0 0,2.500402 0,5.000805 0,7.501206 -2.500053,0 -5.000105,0 -7.500157,0 0,-2.500401 0,-5.000804 0,-7.501206 z"
       style="display:inline;opacity:1;vector-effect:none;fill:#ff0000;fill-opacity:0.51794876;fill-rule:evenodd;stroke:none;stroke-width:0.31580332;stroke-linecap:butt;stroke-linejoin:miter;stroke-miterlimit:10;stroke-dasharray:none;stroke-dashoffset:0;stroke-opacity:1;paint-order:normal" />
    <rect
       style="display:inline;opacity:1;vector-effect:none;fill:#0000ff;fill-opacity:0.51794876;fill-rule:evenodd;stroke:none;stroke-width:0.34577003;stroke-linecap:butt;stroke-linejoin:miter;stroke-miterlimit:10;stroke-dasharray:none;stroke-dashoffset:0;stroke-opacity:1;paint-order:normal"
       id="rect56677-7"
       width="8.2131243"
       height="8.2117281"
       x="14.684554"
       y="111.18536" />
    <rect
       style="display:inline;opacity:1;vector-effect:none;fill:#0000ff;fill-opacity:0.51794876;fill-rule:evenodd;stroke:none;stroke-width:0.34577003;stroke-linecap:butt;stroke-linejoin:miter;stroke-miterlimit:10;stroke-dasharray:none;stroke-dashoffset:0;stroke-opacity:1;paint-order:normal"
       id="rect56677-3-1"
       width="8.2131243"
       height="8.2117281"
       x="3.5252059"
       y="111.18536" />
    <rect
       y="92.161842"
       x="3.6201956"
       height="8.2117281"
       width="8.2131243"
       id="rect56657-2-6"
       style="display:inline;opacity:1;vector-effect:none;fill:#00ff00;fill-opacity:0.51794876;fill-rule:evenodd;stroke:none;stroke-width:0.34577003;stroke-linecap:butt;stroke-linejoin:miter;stroke-miterlimit:10;stroke-dasharray:none;stroke-dashoffset:0;stroke-opacity:1;paint-order:normal" />
    <path
       inkscape:connector-curvature="0"
       id="rect56094-5-9"
       d="m 5.4824934,94.023129 c 1.4961758,0 2.9923518,0 4.4885288,0 0,1.496385 0,2.992769 0,4.489154 -1.496177,0 -2.992353,0 -4.4885288,0 0,-1.496385 0,-2.992769 0,-4.489154 z"
       style="display:inline;opacity:1;vector-effect:none;fill:#ff00ff;fill-opacity:0.51794875;fill-rule:evenodd;stroke:none;stroke-width:0.18899497;stroke-linecap:butt;stroke-linejoin:miter;stroke-miterlimit:10;stroke-dasharray:none;stroke-dashoffset:0;stroke-opacity:1;paint-order:normal" />
    <path
       inkscape:connector-curvature="0"
       id="rect56094-5-9-8"
       d="m 10.816574,77.957883 c 1.496175,0 2.992351,0 4.488528,0 0,1.496385 0,2.992769 0,4.489154 -1.496177,0 -2.992353,0 -4.488528,0 0,-1.496385 0,-2.992769 0,-4.489154 z"
       style="display:inline;opacity:1;vector-effect:none;fill:#ff00ff;fill-opacity:0.51794876;fill-rule:evenodd;stroke:none;stroke-width:0.18899497;stroke-linecap:butt;stroke-linejoin:miter;stroke-miterlimit:10;stroke-dasharray:none;stroke-dashoffset:0;stroke-opacity:1;paint-order:normal" />
    <path
       inkscape:connector-curvature="0"
       id="rect56094-5-9-8-3"
       d="m 5.1216551,33.090453 c 1.496175,0 2.992351,0 4.488528,0 0,1.496385 0,2.992769 0,4.489154 -1.496177,0 -2.992353,0 -4.488528,0 0,-1.496385 0,-2.992769 0,-4.489154 z"
       style="display:inline;opacity:1;vector-effect:none;fill:#ff00ff;fill-opacity:0.51794876;fill-rule:evenodd;stroke:none;stroke-width:0.18899497;stroke-linecap:butt;stroke-linejoin:miter;stroke-miterlimit:10;stroke-dasharray:none;stroke-dashoffset:0;stroke-opacity:1;paint-order:normal" />
    <path
       inkscape:connector-curvature="0"
       id="rect56094-5-9-8-37"
       d="m 10.455735,17.025212 c 1.496175,0 2.992351,0 4.488528,0 0,1.496385 0,2.992769 0,4.489154 -1.496177,0 -2.992353,0 -4.488528,0 0,-1.496385 0,-2.992769 0,-4.489154 z"
       style="display:inline;opacity:1;vector-effect:none;fill:#ff00ff;fill-opacity:0.51794876;fill-rule:evenodd;stroke:none;stroke-width:0.18899497;stroke-linecap:butt;stroke-linejoin:miter;stroke-miterlimit:10;stroke-dasharray:none;stroke-dashoffset:0;stroke-opacity:1;paint-order:normal" />
  </g>
  <g
     inkscape:groupmode="layer"
     id="layer3"
     inkscape:label="components"
     style="display:inline">
    <rect
       y="15.163925"
       x="8.5934372"
       height="8.2117281"
       width="8.2131243"
       id="rect56657"
       style="opacity:1;vector-effect:none;fill:#00ff00;fill-opacity:0.51794876;fill-rule:evenodd;stroke:none;stroke-width:0.34577003;stroke-linecap:butt;stroke-linejoin:miter;stroke-miterlimit:10;stroke-dasharray:none;stroke-dashoffset:0;stroke-opacity:1;paint-order:normal" />
    <path
       inkscape:connector-curvature="0"
       id="rect56094"
       d="m 14.852047,31.600243 c 2.500052,0 5.000104,0 7.500157,0 0,2.500402 0,5.000805 0,7.501207 -2.500053,0 -5.000105,0 -7.500157,0 0,-2.500402 0,-5.000805 0,-7.501207 z"
       style="opacity:1;vector-effect:none;fill:#ff0000;fill-opacity:0.51794876;fill-rule:evenodd;stroke:none;stroke-width:0.31580329;stroke-linecap:butt;stroke-linejoin:miter;stroke-miterlimit:10;stroke-dasharray:none;stroke-dashoffset:0;stroke-opacity:1;paint-order:normal" />
    <rect
       style="opacity:1;vector-effect:none;fill:#0000ff;fill-opacity:0.51794876;fill-rule:evenodd;stroke:none;stroke-width:0.34577003;stroke-linecap:butt;stroke-linejoin:miter;stroke-miterlimit:10;stroke-dasharray:none;stroke-dashoffset:0;stroke-opacity:1;paint-order:normal"
       id="rect56677"
       width="8.2131243"
       height="8.2117281"
       x="14.323713"
       y="50.252678" />
    <rect
       style="display:inline;opacity:1;vector-effect:none;fill:#0000ff;fill-opacity:0.51794876;fill-rule:evenodd;stroke:none;stroke-width:0.34577003;stroke-linecap:butt;stroke-linejoin:miter;stroke-miterlimit:10;stroke-dasharray:none;stroke-dashoffset:0;stroke-opacity:1;paint-order:normal"
       id="rect56677-3"
       width="8.2131243"
       height="8.2117281"
       x="3.1643667"
       y="50.252678" />
    <rect
       y="31.229166"
       x="3.259357"
       height="8.2117281"
       width="8.2131243"
       id="rect56657-2"
       style="display:inline;opacity:1;vector-effect:none;fill:#00ff00;fill-opacity:0.51794876;fill-rule:evenodd;stroke:none;stroke-width:0.34577003;stroke-linecap:butt;stroke-linejoin:miter;stroke-miterlimit:10;stroke-dasharray:none;stroke-dashoffset:0;stroke-opacity:1;paint-order:normal" />
  </g>
</svg>
